<?xml version="1.0" encoding="UTF-8"?>
<svg version="1.1" xmlns="http://www.w3.org/2000/svg" width="66" height="66">
<path d="M0 0 C2.95529457 0.36040178 3.75137927 1.02476855 5.5625 3.3125 C7.2021875 2.755625 7.2021875 2.755625 8.875 2.1875 C10.091875 1.89875 11.30875 1.61 12.5625 1.3125 C13.5525 1.9725 14.5425 2.6325 15.5625 3.3125 C15.3975 4.055 15.2325 4.7975 15.0625 5.5625 C14.50586694 8.62398184 14.19201815 11.2684148 15.25 14.25 C15.7138912 17.31168192 14.2712205 18.85194248 12.5625 21.3125 C12.8925 21.6425 13.2225 21.9725 13.5625 22.3125 C13.27519945 24.65194736 12.94313221 26.9864143 12.5625 29.3125 C9.5 30.1875 9.5 30.1875 5.5625 30.3125 C3.2525 28.3325 0.9425 26.3525 -1.4375 24.3125 C-7.7075 30.5825 -13.9775 36.8525 -20.4375 43.3125 C-18.4575 45.6225 -16.4775 47.9325 -14.4375 50.3125 C-14.5625 54.25 -14.5625 54.25 -15.4375 57.3125 C-22.1875 58.3125 -22.1875 58.3125 -24.4375 58.3125 C-25.18 58.68375 -25.9225 59.055 -26.6875 59.4375 C-30.24827514 60.57047391 -32.06010766 59.72629214 -35.4375 58.3125 C-36.0975 58.9725 -36.7575 59.6325 -37.4375 60.3125 C-40.0625 59.9375 -40.0625 59.9375 -42.4375 59.3125 C-43.4701802 56.52426345 -43.48259293 55.4447726 -42.5 52.5625 C-42.149375 51.82 -41.79875 51.0775 -41.4375 50.3125 C-41.9325 49.920625 -42.4275 49.52875 -42.9375 49.125 C-44.4375 47.3125 -44.4375 47.3125 -44.75 44.875 C-44.4375 42.3125 -44.4375 42.3125 -43.4375 40.375 C-42.21027422 38.22587017 -42.21027422 38.22587017 -42.4375 35.1875 C-42.4375 32.3125 -42.4375 32.3125 -40.4375 30.3125 C-37.75 29.75 -37.75 29.75 -34.4375 30.3125 C-31.82681522 32.41046513 -29.62155258 34.77951594 -27.4375 37.3125 C-20.27948775 31.48621096 -13.91158234 24.8742015 -7.4375 18.3125 C-8.41616338 17.16623678 -9.39544587 16.02050212 -10.375 14.875 C-10.92027344 14.23691406 -11.46554688 13.59882813 -12.02734375 12.94140625 C-12.80545695 12.04258851 -13.59686528 11.15313472 -14.4375 10.3125 C-14.625 7.375 -14.625 7.375 -14.4375 4.3125 C-13.7775 3.6525 -13.1175 2.9925 -12.4375 2.3125 C-9.77083333 2.3125 -7.10416667 2.3125 -4.4375 2.3125 C-2.4375 0.3125 -2.4375 0.3125 0 0 Z " fill="#784FF1" transform="translate(47.4375,2.6875)"/>
</svg>
